<svg width="1053" height="800" viewBox="0 0 1053 800" fill="none" xmlns="http://www.w3.org/2000/svg">
<rect width="1053" height="800" fill="#E5E5E5"/>
<g clip-path="url(#clip0)">
<path d="M323.41 675.18C323.41 675.18 322.89 724.65 317.68 731.38C312.47 738.11 285.22 731.69 285.22 731.69L287.22 677.32C283.61 666.88 282.81 655.94 282.9 647.74C282.9 645.12 283.03 642.74 283.18 640.81C283.47 636.81 283.87 634.45 283.87 634.45L270.7 591.27C269.47 577.17 252.63 549.27 252.63 549.27C252.63 549.27 253.55 587.86 256.92 596.74C260.29 605.62 260.92 640.53 260.92 640.53C260.92 640.53 270.11 685.25 270.72 688.01C271.33 690.77 278.99 703.32 278.99 703.32C278.99 703.32 277.46 718.63 279.3 721.39C281.14 724.15 288.79 745.59 286.95 749.57C285.11 753.55 252.04 748.03 252.04 744.97C252.04 743.36 249.64 736.24 247.37 729.9L245.91 725.84C244.53 722.07 243.46 719.25 243.46 719.25C243.46 719.25 230.7 688.19 224.03 664.96C223.75 663.96 223.49 663.04 223.23 662.11C222.93 661.01 222.65 659.94 222.39 658.89C221.465 655.404 220.76 651.864 220.28 648.29C220.029 646.534 219.999 644.753 220.19 642.99C222.33 628.59 208.55 596.13 208.55 596.13C208.55 596.13 192.93 546.51 190.17 544.06C187.41 541.61 184.04 517.73 182.82 507.31C182.54 504.87 182.05 501.83 181.46 498.6C181.26 497.45 181.04 496.28 180.82 495.1C178.95 485.45 176.65 475.46 176.65 475.46L211 452.79L301.35 442.99C301.35 442.99 303.87 462.35 307.04 483.69C307.26 485.17 307.49 486.69 307.72 488.18C310.72 508.24 314.25 529 316.66 536.4C321.86 552.33 321.86 599.8 323.4 623.99C324.94 648.18 323.41 675.18 323.41 675.18Z" fill="#63667E"/>
<path opacity="0.1" d="M234.54 471.28L245.91 529.33H251.31L240.51 469.26L234.54 471.28Z" fill="black"/>
<path opacity="0.1" d="M181.5 498.61C181.3 497.46 181.08 496.29 180.86 495.11C186.15 494.03 198.12 489.62 196.26 471.94H199.93C199.93 471.94 203.41 495.23 181.5 498.61Z" fill="black"/>
<path opacity="0.1" d="M307.76 488.22C300.9 489.48 279.46 493.17 274.97 490.73C269.62 487.82 264.33 472.05 264.33 472.05L269.23 471.28C269.23 471.28 264.91 494.41 307.08 483.73C307.3 485.21 307.53 486.71 307.76 488.22Z" fill="black"/>
<path d="M305.91 469.14C299.73 472.73 285.22 474.46 268.33 475.14C266.79 475.2 265.24 475.26 263.66 475.3C236.28 476.16 204.31 474.61 191.57 473.88C187.98 473.68 185.92 473.54 185.92 473.54L197.1 465.81L215.48 459.07L254.14 451.49L303.68 450.11L304.18 454.36L305.91 469.14Z" fill="#33363D"/>
<path d="M268.33 475.18C266.79 475.24 265.24 475.3 263.66 475.34C261.72 467.12 255.6 453.98 255.6 453.98L260.8 453.29L268.33 475.18Z" fill="#63667E"/>
<g filter="url(#filter0_d)">
<path d="M60.374 493C60.374 493 58.214 495.5 54.894 498.88C44.814 509.13 24.064 527.44 20.524 508.62C16.854 489.11 33.404 476.62 40.894 472C43.014 470.69 44.404 470 44.404 470L60.374 493Z" fill="#FFA2A2"/>
<path d="M43.6846 470.947C43.9084 470.824 44.0961 470.724 44.2436 470.646L59.7406 492.964C59.7015 493.009 59.658 493.058 59.6103 493.112C59.3574 493.397 58.9852 493.814 58.5095 494.336C57.5579 495.379 56.1923 496.845 54.5375 498.529C49.4983 503.654 41.8402 510.74 35.0297 514.206C31.6117 515.945 28.5207 516.713 26.1121 516C23.7652 515.305 21.8827 513.139 21.0153 508.528L20.5243 508.62L21.0153 508.528C19.2129 498.946 22.3689 491.085 26.9236 485.027C31.4852 478.959 37.4362 474.72 41.1565 472.426L41.1568 472.425C42.2087 471.775 43.0787 471.28 43.6846 470.947Z" stroke="black"/>
</g>
<g filter="url(#filter1_d)">
<path d="M430.871 269.463C429.745 264.868 431.876 260.093 436.181 258.13V258.13C449.264 252.173 475.198 242.515 471.758 261.354C468.193 280.883 448.266 286.613 439.618 288.242V288.242C437.337 288.673 435.215 287.181 434.662 284.926L430.871 269.463Z" fill="#FFA2A2"/>
<path d="M436.388 258.585C442.929 255.607 452.618 251.736 460.218 250.941C464.032 250.542 467.193 250.933 469.186 252.462C471.128 253.951 472.109 256.648 471.266 261.264L471.758 261.354L471.266 261.264C469.515 270.855 463.752 277.063 457.329 281.087C450.896 285.117 443.821 286.941 439.525 287.75L439.618 288.242L439.525 287.75C437.528 288.128 435.643 286.826 435.148 284.807L431.357 269.344C430.284 264.967 432.317 260.442 436.388 258.585Z" stroke="black"/>
</g>
<path d="M245.34 271.83C245.34 271.83 233.63 264.48 231.45 265.17C229.27 265.86 231.45 275.72 231.45 275.72C228.626 281.108 224.16 285.458 218.7 288.14C212.441 291.413 206.38 295.052 200.55 299.04C196.037 298.6 191.481 299.108 187.176 300.532C182.87 301.956 178.91 304.265 175.55 307.31C173.2 308.89 170.542 309.953 167.751 310.428C164.96 310.904 162.1 310.782 159.36 310.07C150.28 307.55 149.83 295.15 151.09 290.44C152.09 286.74 167.23 277.14 173.75 273.14C175.55 272.04 176.69 271.37 176.69 271.37C176.69 271.37 206.11 270.37 212.75 257.82C214.793 253.941 217.839 250.681 221.57 248.38V248.38L221.74 248.29L222.58 247.79L222.85 247.64C225.941 245.937 229.341 244.869 232.85 244.5C247.22 253.68 245.34 271.83 245.34 271.83Z" fill="#CED7E7"/>
<path opacity="0.1" d="M245.34 271.83C245.34 271.83 233.63 264.48 231.45 265.17C229.27 265.86 231.45 275.72 231.45 275.72C228.626 281.108 224.16 285.458 218.7 288.14C212.441 291.413 206.38 295.052 200.55 299.04C196.037 298.6 191.481 299.108 187.176 300.532C182.87 301.956 178.91 304.265 175.55 307.31C173.2 308.89 170.542 309.953 167.751 310.428C164.96 310.904 162.1 310.782 159.36 310.07C150.28 307.55 149.83 295.15 151.09 290.44C152.09 286.74 167.23 277.14 173.75 273.14C175.55 272.04 176.69 271.37 176.69 271.37C176.69 271.37 206.11 270.37 212.75 257.82C214.793 253.941 217.839 250.681 221.57 248.38V248.38L221.74 248.29L222.58 247.79L222.85 247.64C225.941 245.937 229.341 244.869 232.85 244.5C247.22 253.68 245.34 271.83 245.34 271.83Z" fill="black"/>
<path opacity="0.1" d="M304.18 454.4C298.67 449.19 264.37 458.68 264.37 458.68C264.37 458.68 240.75 465.46 222.73 466.56C220.277 466.723 217.817 466.753 215.36 466.65C207.79 466.26 199.9 469.32 193.28 472.99L191.61 473.99C188.02 473.79 185.96 473.65 185.96 473.65L197.14 465.92L215.52 459.18L254.18 451.6L303.72 450.22L304.18 454.4Z" fill="black"/>
<path opacity="0.1" d="M54.26 498.11C56.55 482.85 44.71 473.98 40.26 471.23C42.38 469.92 43.77 469.23 43.77 469.23L59.77 492.23C59.77 492.23 57.58 494.73 54.26 498.11Z" fill="black"/>
<path d="M433.7 290.21C433.7 290.21 409.19 293.21 399.4 306.13C389.61 319.05 368.46 317.77 368.46 317.77C368.46 317.77 350.08 327.57 331.71 328.18C320.8 328.54 315.71 331.28 313.39 333.45C311.503 335.265 309.447 336.896 307.25 338.32C298.91 343.5 297.6 350.85 298.17 356.52C298.885 363.256 299.235 370.026 299.22 376.8C299 395.8 302.31 428.94 302.31 428.94C302.31 428.94 309.66 457.73 304.14 452.53C298.62 447.33 264.33 456.81 264.33 456.81C264.33 456.81 240.71 463.59 222.69 464.7C220.237 464.86 217.776 464.887 215.32 464.78C207.75 464.39 199.86 467.45 193.24 471.13C187.544 474.343 182.215 478.169 177.35 482.54C171.49 468.01 173.93 449.32 175.85 439.66C176.747 435.2 176.513 430.586 175.17 426.24L166.32 397.86C166.32 397.86 147.03 404.44 137.84 421.59C128.65 438.74 86.69 471.82 78.41 473.97C74.62 474.97 72.18 477.92 70.65 480.86C68.6828 484.791 65.9213 488.271 62.54 491.08C59.4061 493.718 56.7064 496.833 54.54 500.31C60.06 479.48 39.54 469.37 39.54 469.37C39.54 469.37 47.8 466.61 51.17 455.61C54.54 444.61 70.17 433.26 70.17 433.26C70.17 433.26 86.1 405.08 95.29 400.48C104.48 395.88 121.02 373.84 121.02 373.84C124.38 349.03 140.02 336.17 140.02 336.17C140.02 336.17 157.18 328.82 159.02 322.75C159.66 320.67 161.76 316.8 164.27 312.62C166.61 308.68 169.27 304.49 171.42 301.22C173.57 297.95 175.26 295.43 175.26 295.43L202.76 295.17L207.76 295.12L222.41 267.54C222.41 267.54 227.62 262.34 236.65 268.46C239.246 270.194 242.333 271.042 245.45 270.88C249.543 270.615 253.512 269.367 257.02 267.24C291.94 257.74 306.64 275.72 306.64 275.72C306.64 275.72 330.83 273.67 332.05 275.72C333.27 277.77 345.83 275.72 345.83 275.72L379.22 272.44L430.68 264.18L433.7 290.21Z" fill="#CED7E7"/>
<path d="M232.78 281.02L217.16 306.74C217.16 306.74 174.59 337.68 180.72 313.48C181.713 309.41 182.068 305.209 181.77 301.03C181.68 299.4 181.49 297.77 181.25 296.16C180.14 289.487 178.177 282.983 175.41 276.81C175.1 276.07 174.78 275.36 174.41 274.66C173.93 273.66 173.46 272.66 172.99 271.72C171.019 267.728 168.777 263.876 166.28 260.19C166.28 260.19 212.53 222.52 214.06 246.1C214.395 251.427 215.612 256.661 217.66 261.59L218.02 262.42C220.594 268.233 224.295 273.477 228.91 277.85C230.117 279.004 231.411 280.064 232.78 281.02V281.02Z" fill="#FFA2A2"/>
<path d="M170.92 304.91L178.12 326.34L207.41 331.09L224.21 312.61C224.21 312.61 233.86 298.83 234.47 298.52C235.08 298.21 236.61 285.05 236.61 285.05L238.41 277.61L227.08 273.8L211.15 291.1L204.64 295.1L197.41 296.86L173.41 303.86L170.92 304.91Z" fill="#CED7E7"/>
<path opacity="0.1" d="M245.34 273.67C245.34 273.67 237.34 273.59 235.21 274.28C233.08 274.97 231.45 277.55 231.45 277.55C228.628 282.942 224.162 287.296 218.7 289.98C212.441 293.253 206.38 296.892 200.55 300.88C196.037 300.437 191.48 300.944 187.175 302.369C182.869 303.793 178.909 306.103 175.55 309.15C172.199 311.399 168.256 312.603 164.22 312.61C166.56 308.67 169.22 304.48 171.37 301.21C181.25 300.13 202.16 296.3 202.16 296.3L202.71 295.16C204.65 291.16 211.22 277.65 213.64 273.57C216.46 268.81 225.3 253.94 225.58 253.47L216.9 261.41L221.54 250.23L221.71 250.14L222.55 249.64L222.82 249.49C225.911 247.787 229.311 246.719 232.82 246.35C243.77 253.35 245.33 265.45 245.45 270.9C245.466 271.825 245.429 272.749 245.34 273.67Z" fill="black"/>
<path opacity="0.1" d="M173.72 271.31L175.99 276.31C175.99 276.31 175.8 276.47 175.4 276.77C175.09 276.03 174.77 275.32 174.4 274.62C173.92 273.62 173.45 272.62 172.98 271.68C173.22 271.54 173.44 271.39 173.66 271.27L173.72 271.31Z" fill="black"/>
<path opacity="0.1" d="M228.95 277.85C226.195 281.385 222.695 284.27 218.7 286.3C212.439 289.574 206.378 293.217 200.55 297.21C194.048 296.567 187.504 297.898 181.77 301.03C181.68 299.4 181.49 297.77 181.25 296.16C191.09 294.64 202.16 292.61 202.16 292.61C202.16 292.61 210.78 274.7 213.64 269.88C214.64 268.26 216.28 265.43 218.06 262.42C220.634 268.233 224.335 273.477 228.95 277.85Z" fill="black"/>
<path d="M245.34 271.83C245.34 271.83 237.34 271.75 235.2 272.44C233.06 273.13 231.45 275.72 231.45 275.72C228.626 281.108 224.16 285.458 218.7 288.14C212.441 291.413 206.38 295.052 200.55 299.04C196.037 298.6 191.481 299.108 187.176 300.532C182.87 301.956 178.91 304.265 175.55 307.31C173.2 308.89 170.542 309.953 167.751 310.428C164.96 310.904 162.1 310.782 159.36 310.07C150.28 307.55 149.83 295.15 151.09 290.44C152.09 286.74 167.23 277.14 173.75 273.14L176.02 278.19C171.291 281.815 166.338 285.138 161.19 288.14C151.42 293.99 156.36 300.31 156.36 300.31C159.875 299.701 163.445 299.466 167.01 299.61C172.07 299.95 202.16 294.44 202.16 294.44C202.16 294.44 210.78 276.52 213.64 271.71C216.5 266.9 225.3 252.08 225.58 251.61L216.9 259.61L221.54 248.43L221.71 248.34L222.55 247.84L222.82 247.69C225.911 245.987 229.311 244.919 232.82 244.55C247.22 253.68 245.34 271.83 245.34 271.83Z" fill="#CED7E7"/>
<path opacity="0.1" d="M217.7 261.61C213.201 268.562 206.379 273.691 198.45 276.081C190.522 278.471 182.002 277.968 174.41 274.66C172.1 269.623 169.38 264.783 166.28 260.19C166.28 260.19 212.53 222.52 214.06 246.1C214.406 251.436 215.636 256.677 217.7 261.61Z" fill="black"/>
<path d="M222.41 240.8C222.41 241.673 222.38 242.533 222.32 243.38C221.662 252.527 217.441 261.051 210.564 267.118C203.686 273.184 194.703 276.31 185.545 275.821C176.387 275.332 167.787 271.269 161.595 264.504C155.402 257.74 152.112 248.816 152.431 239.65C152.751 230.485 156.655 221.812 163.304 215.495C169.953 209.179 178.815 205.725 187.985 205.875C197.154 206.026 205.899 209.77 212.336 216.301C218.774 222.832 222.391 231.629 222.41 240.8V240.8Z" fill="#FFA2A2"/>
<path opacity="0.1" d="M131.72 353.3C131.72 353.3 139.41 367.69 148.87 375.61C158.33 383.53 163.87 395.83 163.87 395.83C163.87 395.83 161.12 371.98 131.72 353.3Z" fill="black"/>
<path opacity="0.1" d="M119.77 389.44C119.77 389.44 146.77 382.7 160.36 389.44H119.77Z" fill="black"/>
<path opacity="0.1" d="M109.97 429.61L139.02 419.61C139.02 419.61 120.41 432.93 109.97 429.61Z" fill="black"/>
<path opacity="0.1" d="M59.74 468.76C59.74 468.76 72.3 468.15 76.28 472.13C76.28 472.13 64.03 473.05 59.74 468.76Z" fill="black"/>
<path opacity="0.1" d="M352.82 275.02C352.82 275.02 324.66 291.74 323.41 318.69L352.82 275.02Z" fill="black"/>
<path opacity="0.1" d="M386.84 300.31C386.84 300.31 351.92 307.36 346.1 311.03C340.28 314.7 327.73 316.54 327.73 316.54C327.73 316.54 378.26 309.81 386.84 300.31Z" fill="black"/>
<path opacity="0.1" d="M284.41 448.12C281.87 450.76 250.52 458.2 222.5 464.42C219.957 464.588 217.406 464.618 214.86 464.51C207.01 464.11 198.86 467.26 191.96 471.04C183.5 472.84 178.03 473.97 178.03 473.97C178.03 473.97 168.82 466.71 181.52 450.32C194.22 433.93 196.45 408.07 196.45 408.07L252.99 393.61C252.99 393.61 268.24 414.61 275.54 417.98C282.84 421.35 289.11 443.26 284.41 448.12Z" fill="black"/>
<path d="M282.41 448.85C279.95 451.43 249.72 458.65 222.7 464.7C220.247 464.86 217.786 464.887 215.33 464.78C207.76 464.39 199.87 467.45 193.25 471.13C185.09 472.87 179.81 473.97 179.81 473.97C179.81 473.97 170.93 466.92 183.18 450.97C195.43 435.02 197.57 409.92 197.57 409.92L252.09 395.84C252.09 395.84 266.79 416.24 273.83 419.52C280.87 422.8 286.91 444.14 282.41 448.85Z" fill="#CED7E7"/>
<path opacity="0.1" d="M238.15 649.61L222.41 658.93C221.485 655.444 220.78 651.904 220.3 648.33C222.59 650.24 238.15 649.61 238.15 649.61Z" fill="black"/>
<path opacity="0.1" d="M223.27 662.15C228.83 661.09 242.03 658.45 249.27 655.97C242.71 659.17 230.84 664.52 224.1 664.97C223.79 664.04 223.53 663.08 223.27 662.15Z" fill="black"/>
<path opacity="0.1" d="M253.91 653.61C253.33 654.32 251.63 655.12 249.28 655.93C252.09 654.61 253.91 653.61 253.91 653.61Z" fill="black"/>
<path opacity="0.1" d="M303.26 649.22C302.52 649.12 290.62 647.78 282.96 647.74C282.96 645.12 283.09 642.74 283.24 640.81C288.52 643.04 302.47 648.95 303.26 649.22Z" fill="black"/>
<path d="M294.5 780.92C293.12 786.61 270.84 785.61 270.84 785.61L269 788.05C269 788.05 260.43 791.19 254 789.35C247.57 787.51 228 787.9 228 787.9V781.61C228 773.42 237.19 770.74 237.19 770.74C237.19 770.74 244.92 764.31 247.6 757.8C249.271 753.77 251.212 749.858 253.41 746.09C253.41 746.09 246.22 737.36 265.51 735.09C284.51 732.89 277.06 750.14 276.85 750.62C277.16 750.34 284.29 743.93 288.25 745.95C291.11 747.42 293.7 761.34 294.51 771.42C294.88 775.7 294.9 779.25 294.5 780.92Z" fill="#CED7E7"/>
<path opacity="0.1" d="M294.5 780.92C293.12 786.61 270.84 785.61 270.84 785.61L269 788.05C269 788.05 260.43 791.19 254 789.35C247.57 787.51 228 787.9 228 787.9V781.9C239.78 782.48 263.36 783.26 268.66 780.53C268.66 780.53 275.01 778.92 276.47 777.85C277.7 776.94 290.64 772.71 294.47 771.46C294.88 775.7 294.9 779.25 294.5 780.92Z" fill="black"/>
<path d="M343.27 781.55C322.98 783.77 312.41 778.86 312.41 778.86C310.73 777.83 309.292 776.448 308.196 774.81C307.1 773.172 306.371 771.316 306.06 769.37C304.99 762.71 294.8 755.98 294.8 755.98C294.8 755.98 282.25 757.2 280.71 753.52C280.34 751.959 280.199 750.352 280.29 748.75C280.29 738.88 282.76 718.15 285.61 718.45C288.97 718.82 299.36 732.58 300.4 733.96C299.49 732.48 290.45 717.07 310.5 715.24C310.5 715.24 326.88 705.98 325.2 727.57L332.09 742.42C332.09 742.42 345.65 762.42 349.01 761.72C350.62 761.39 354.01 765.39 354.91 769.91C355.88 774.84 353.87 780.39 343.27 781.55Z" fill="#CED7E7"/>
<path opacity="0.1" d="M222.41 240.8C222.41 241.673 222.38 242.533 222.32 243.38L221.47 243.7L218.18 244.9C217.626 245.138 217.033 245.273 216.43 245.3C215.96 245.28 215.5 245.154 215.086 244.931C214.672 244.707 214.314 244.392 214.04 244.01C213.567 243.287 213.228 242.484 213.04 241.64L210.55 232.07C210.05 230.17 209.28 227.98 207.15 227.27C206.528 227.134 205.916 226.953 205.32 226.73C203.99 226.1 203.71 224.62 203.26 223.38C202.26 220.49 199.59 218.18 196.7 216.38C194.746 215.012 192.425 214.266 190.04 214.24C188.763 214.26 187.528 214.703 186.53 215.5C184.44 217.27 184.73 219.66 184.98 222.18C185.23 224.7 185.9 227.39 185.16 229.91C184.66 231.55 183.59 233.08 183.4 234.78C183.24 236.15 183.69 237.54 183.61 238.91C183.594 239.65 183.329 240.363 182.857 240.933C182.385 241.503 181.734 241.897 181.01 242.05C180.88 241.22 179.67 240.95 178.86 240.5C177.03 239.5 176.93 237.32 177.01 235.5C177.15 232.78 177.28 230.05 177.41 227.33C176.602 233.414 175.349 239.43 173.66 245.33C173.452 246.356 172.976 247.308 172.28 248.09C171.87 248.498 171.347 248.775 170.778 248.883C170.21 248.992 169.622 248.928 169.09 248.7C168.471 248.31 168.013 247.71 167.8 247.01C166.522 243.842 166.082 240.398 166.52 237.01C165.41 241.44 164.3 245.92 162.16 250.08C161.31 251.73 160.02 253.52 157.93 253.85C157.292 253.87 156.66 253.974 156.05 254.16C155.806 254.276 155.586 254.435 155.4 254.63C153.362 249.872 152.408 244.721 152.606 239.55C152.804 234.378 154.149 229.315 156.545 224.727C158.94 220.139 162.326 216.141 166.456 213.023C170.587 209.904 175.359 207.744 180.428 206.697C185.497 205.65 190.735 205.743 195.763 206.969C200.791 208.195 205.483 210.525 209.501 213.788C213.518 217.051 216.759 221.167 218.99 225.837C221.221 230.507 222.386 235.614 222.4 240.79L222.41 240.8Z" fill="black"/>
<path d="M186.53 213.71C187.526 212.907 188.761 212.46 190.04 212.44C192.424 212.469 194.745 213.215 196.7 214.58C199.59 216.34 202.22 218.64 203.26 221.58C203.71 222.82 203.98 224.31 205.26 224.94C205.859 225.153 206.47 225.33 207.09 225.47C209.23 226.18 210 228.37 210.49 230.27L213 239.84C213.163 240.683 213.485 241.488 213.95 242.21C214.223 242.594 214.581 242.911 214.995 243.136C215.409 243.362 215.869 243.489 216.34 243.51C216.947 243.483 217.544 243.344 218.1 243.1L221.39 241.9C223.12 241.27 225 240.52 225.79 239.06C226.204 238.118 226.343 237.078 226.19 236.06C225.998 233.005 225.57 229.969 224.91 226.98L228.69 229.55C229.6 230.16 230.74 230.81 231.82 230.47C232.171 230.339 232.487 230.128 232.742 229.854C232.997 229.579 233.185 229.25 233.29 228.89C233.97 227.01 233.48 224.76 234.9 223.21C235.24 222.85 235.66 222.54 235.96 222.16C237.25 220.5 235.72 218.25 236.25 216.31C236.76 216.511 237.323 216.539 237.85 216.389C238.378 216.239 238.842 215.92 239.17 215.48C239.69 214.641 239.944 213.666 239.9 212.68C240.2 207.03 240.34 200.91 236.47 196.31C237.18 191.69 232.28 186.66 226.86 186.03C225.51 185.87 223.86 185.79 223.27 184.76C223.061 184.264 222.968 183.727 223 183.19C222.86 181.44 221.69 179.88 220.56 178.41C220.108 177.762 219.555 177.191 218.92 176.72C217.13 175.54 214.58 175.86 212.36 176.26C208.287 176.987 204.24 177.803 200.22 178.71C199.748 176.734 199.779 174.671 200.31 172.71C200.72 171.23 201.42 169.71 200.66 168.23C200.467 167.86 200.181 167.547 199.83 167.321C199.48 167.095 199.077 166.964 198.66 166.94C198.131 166.926 197.61 167.067 197.16 167.346C196.71 167.625 196.352 168.03 196.13 168.51C193.827 171.954 192.236 175.823 191.45 179.89C189.939 178.821 188.183 178.151 186.344 177.941C184.505 177.731 182.643 177.989 180.93 178.69C180.066 179.176 179.126 179.514 178.15 179.69C177.337 179.679 176.54 179.456 175.839 179.044C175.138 178.632 174.556 178.045 174.15 177.34C173.05 175.64 172.55 173.62 170.41 172.51C169.934 172.259 169.403 172.127 168.865 172.127C168.327 172.127 167.796 172.259 167.32 172.51C164.49 174.16 168.02 178.25 165.92 180.4C165.337 180.902 164.656 181.276 163.92 181.5L158.67 183.43C155.871 184.626 152.901 185.371 149.87 185.64C146.39 185.78 142.87 184.71 139.45 185.43C140.825 186.996 142.653 188.097 144.68 188.58C145.92 188.89 147.23 188.99 148.44 189.39C149.027 189.521 149.571 189.798 150.02 190.197C150.47 190.596 150.81 191.103 151.01 191.67C151.28 193.08 149.92 194.44 150.19 195.85C150.395 196.455 150.811 196.967 151.362 197.292C151.912 197.616 152.561 197.733 153.19 197.62L146.98 201.62C145.86 202.34 144.61 203.39 145.03 204.53L147.03 205.11L141.64 212.84C140.94 213.624 140.54 214.63 140.51 215.68C140.562 215.949 140.67 216.205 140.825 216.431C140.98 216.657 141.181 216.849 141.413 216.994C141.646 217.139 141.906 217.235 142.177 217.276C142.448 217.317 142.725 217.301 142.99 217.23C141.698 218.575 140.68 220.158 139.99 221.89C139.865 222.117 139.795 222.37 139.786 222.629C139.777 222.888 139.83 223.145 139.94 223.38C140.177 223.637 140.473 223.834 140.801 223.954C141.13 224.074 141.483 224.114 141.83 224.07C144.73 224.07 147.42 222.07 147.83 219.6C148.72 220.6 147.77 221.78 146.92 222.79C143.51 226.89 140.03 231.07 138.22 235.85C136.41 240.63 136.49 246.21 139.88 250.32C140.63 251.115 141.3 251.983 141.88 252.91C142.96 254.97 142.34 257.61 144.02 259.36C145.371 255.658 147.009 252.067 148.92 248.62C148.812 249.832 148.635 251.038 148.39 252.23C148.309 252.861 148.432 253.502 148.739 254.059C149.046 254.616 149.523 255.061 150.1 255.33C151.86 255.97 153.69 254.6 154.84 253.33C155.126 252.952 155.491 252.642 155.91 252.42C156.518 252.238 157.146 252.134 157.78 252.11C159.87 251.78 161.15 250 162.01 248.34C164.15 244.19 165.27 239.71 166.37 235.26C165.928 238.649 166.373 242.094 167.66 245.26C167.867 245.96 168.322 246.561 168.94 246.95C169.473 247.174 170.061 247.235 170.629 247.125C171.197 247.014 171.72 246.738 172.13 246.33C172.828 245.55 173.304 244.597 173.51 243.57C175.195 237.669 176.448 231.653 177.26 225.57L176.86 233.74C176.77 235.58 176.86 237.74 178.7 238.74C179.53 239.19 180.7 239.46 180.86 240.28C181.585 240.134 182.237 239.743 182.709 239.173C183.18 238.604 183.442 237.889 183.45 237.15C183.54 235.77 183.09 234.39 183.25 233.01C183.44 231.32 184.52 229.79 185.01 228.14C185.75 225.63 185.1 223 184.83 220.42C184.56 217.84 184.41 215.47 186.53 213.71Z" fill="#896363"/>
<path opacity="0.1" d="M343.27 781.55C322.98 783.77 312.41 778.86 312.41 778.86C310.73 777.83 309.292 776.448 308.196 774.81C307.1 773.172 306.371 771.316 306.06 769.37C304.99 762.71 294.8 755.98 294.8 755.98C294.8 755.98 282.25 757.2 280.71 753.52C280.34 751.959 280.199 750.352 280.29 748.75C284.93 749.86 295.62 752.41 298.93 753.36C303.23 754.58 315.79 774.95 315.79 774.95C327.88 781.31 347.89 773.15 354.91 769.95C355.88 774.84 353.87 780.39 343.27 781.55Z" fill="black"/>
<path opacity="0.1" d="M253.41 746.09C253.41 746.09 247.23 755.57 276.85 750.67Z" fill="black"/>
<path opacity="0.1" d="M300.41 733.96C300.41 733.96 331.65 740.75 325.21 727.57Z" fill="black"/>
<g opacity="0.1">
<path opacity="0.1" d="M150.41 194.15C150.239 194.592 150.184 195.071 150.25 195.54C150.381 196.08 150.718 196.547 151.19 196.84L153.3 195.48C152.74 195.579 152.163 195.505 151.647 195.267C151.13 195.03 150.699 194.64 150.41 194.15V194.15Z" fill="black"/>
<path opacity="0.1" d="M144.69 188.28C145.94 188.59 147.25 188.69 148.46 189.09C149.47 189.358 150.335 190.012 150.87 190.91C151.042 190.472 151.097 189.996 151.03 189.53C150.83 188.963 150.49 188.456 150.04 188.057C149.591 187.658 149.047 187.381 148.46 187.25C147.25 186.85 145.94 186.75 144.69 186.44C143.472 186.135 142.317 185.617 141.28 184.91C140.672 184.933 140.066 185.007 139.47 185.13C140.843 186.694 142.667 187.794 144.69 188.28V188.28Z" fill="black"/>
<path opacity="0.1" d="M149.07 246.48C147.156 249.927 145.514 253.518 144.16 257.22C142.49 255.47 143.1 252.83 142.02 250.77C141.444 249.84 140.774 248.972 140.02 248.18C138.316 246.089 137.331 243.505 137.21 240.81C136.933 244.127 137.939 247.423 140.02 250.02C140.774 250.812 141.444 251.68 142.02 252.61C143.1 254.67 142.49 257.3 144.16 259.06C145.431 255.598 146.952 252.232 148.71 248.99C148.929 248.171 149.05 247.328 149.07 246.48Z" fill="black"/>
<path opacity="0.1" d="M140.8 214.12C140.623 214.515 140.55 214.949 140.59 215.38C140.647 215.687 140.776 215.976 140.965 216.224C141.155 216.473 141.399 216.673 141.68 216.81C142.098 216.201 142.562 215.626 143.07 215.09C142.638 215.221 142.174 215.196 141.758 215.018C141.343 214.841 141.004 214.523 140.8 214.12Z" fill="black"/>
<path opacity="0.1" d="M199.99 174.73C200.033 173.946 200.157 173.169 200.36 172.41C200.72 171.13 201.28 169.83 200.93 168.53C200.79 169.21 200.55 169.9 200.36 170.53C199.989 171.897 199.863 173.319 199.99 174.73Z" fill="black"/>
<path opacity="0.1" d="M166.31 173.61C166.198 174.774 166.289 175.948 166.58 177.08C166.695 175.917 166.604 174.742 166.31 173.61V173.61Z" fill="black"/>
<path opacity="0.1" d="M147.94 217.46C147.49 219.89 144.79 221.88 141.94 221.93C141.309 221.98 140.683 221.787 140.19 221.39L140.1 221.59C139.975 221.817 139.905 222.069 139.894 222.328C139.884 222.587 139.934 222.844 140.04 223.08C140.28 223.335 140.578 223.53 140.908 223.648C141.239 223.767 141.592 223.805 141.94 223.76C143.12 223.74 144.275 223.413 145.29 222.81C145.88 222.08 146.48 221.36 147.07 220.65C147.383 220.29 147.67 219.909 147.93 219.51C147.951 219.441 147.968 219.371 147.98 219.3V219.35C148.191 219.078 148.302 218.742 148.295 218.398C148.288 218.054 148.163 217.723 147.94 217.46V217.46Z" fill="black"/>
<path opacity="0.1" d="M145.58 202.53C145.348 202.739 145.18 203.01 145.095 203.311C145.01 203.612 145.012 203.93 145.1 204.23L146.04 204.5L147.1 202.97L145.58 202.53Z" fill="black"/>
<path opacity="0.1" d="M236.01 220.08C235.71 220.46 235.29 220.77 234.95 221.08C233.52 222.63 234.02 224.88 233.34 226.76C233.233 227.119 233.045 227.448 232.79 227.722C232.535 227.996 232.22 228.208 231.87 228.34C230.79 228.68 229.65 228.03 228.74 227.42L224.96 224.85C225.11 225.55 225.25 226.26 225.38 226.97L228.74 229.25C229.65 229.87 230.79 230.52 231.87 230.18C232.219 230.046 232.534 229.834 232.788 229.561C233.043 229.287 233.232 228.958 233.34 228.6C234.02 226.72 233.52 224.47 234.95 222.92C235.29 222.55 235.71 222.25 236.01 221.87C236.272 221.466 236.446 221.012 236.521 220.536C236.595 220.06 236.567 219.574 236.44 219.11C236.373 219.462 236.226 219.794 236.01 220.08V220.08Z" fill="black"/>
<path opacity="0.1" d="M226.22 235.61C226.178 236.067 226.049 236.512 225.84 236.92C225.05 238.38 223.17 239.13 221.43 239.76L218.15 240.96C217.592 241.2 216.996 241.338 216.39 241.37C215.919 241.349 215.459 241.222 215.045 240.996C214.631 240.771 214.273 240.454 214 240.07C213.523 239.349 213.184 238.545 213 237.7L210.5 228.13C210 226.23 209.24 224.04 207.1 223.33C206.48 223.19 205.869 223.013 205.27 222.8C203.94 222.16 203.66 220.68 203.27 219.44C202.27 216.54 199.6 214.24 196.71 212.44C194.754 211.077 192.434 210.331 190.05 210.3C188.771 210.319 187.535 210.766 186.54 211.57C184.87 212.98 184.72 214.79 184.85 216.75C184.888 216.106 185.058 215.476 185.349 214.9C185.639 214.324 186.045 213.814 186.54 213.4C187.54 212.604 188.773 212.158 190.05 212.13C192.433 212.17 194.75 212.915 196.71 214.27C199.6 216.04 202.23 218.34 203.27 221.27C203.71 222.51 203.99 223.99 205.27 224.63C205.869 224.843 206.48 225.02 207.1 225.16C209.24 225.87 210 228.06 210.5 229.96L213 239.52C213.181 240.366 213.521 241.17 214 241.89C214.271 242.277 214.628 242.597 215.042 242.824C215.457 243.051 215.918 243.18 216.39 243.2C216.996 243.164 217.591 243.025 218.15 242.79L221.41 241.61C223.15 240.98 225.03 240.23 225.82 238.77C226.234 237.828 226.373 236.788 226.22 235.77C226.23 235.75 226.23 235.69 226.22 235.61Z" fill="black"/>
<path opacity="0.1" d="M239.95 210.61C239.994 211.596 239.74 212.571 239.22 213.41C238.892 213.85 238.428 214.169 237.9 214.319C237.373 214.469 236.81 214.441 236.3 214.24C236.157 214.899 236.157 215.581 236.3 216.24V216.1C236.81 216.301 237.373 216.329 237.9 216.179C238.428 216.029 238.892 215.71 239.22 215.27C239.738 214.431 239.993 213.455 239.95 212.47C240.04 210.84 240.11 209.17 240.07 207.52C240.05 208.53 240 209.61 239.95 210.61Z" fill="black"/>
<path opacity="0.1" d="M166.52 233.09C165.583 237.605 164.12 241.995 162.16 246.17C161.3 247.83 160.02 249.61 157.92 249.94C157.286 249.966 156.658 250.07 156.05 250.25C155.636 250.474 155.275 250.785 154.99 251.16C153.84 252.46 151.99 253.83 150.25 253.16C149.837 253 149.473 252.736 149.191 252.395C148.909 252.053 148.719 251.646 148.64 251.21C148.64 251.45 148.56 251.68 148.54 251.91C148.45 252.541 148.569 253.184 148.877 253.742C149.186 254.299 149.668 254.741 150.25 255C152.01 255.65 153.84 254.27 154.99 253C155.278 252.63 155.639 252.324 156.05 252.1C156.656 251.91 157.285 251.806 157.92 251.79C160.02 251.46 161.3 249.68 162.16 248.02C164.033 244.06 165.439 239.895 166.35 235.61C166.351 234.767 166.408 233.925 166.52 233.09Z" fill="black"/>
<path opacity="0.1" d="M177.41 223.43C176.598 229.513 175.345 235.529 173.66 241.43C173.455 242.459 172.974 243.413 172.27 244.19C171.86 244.599 171.338 244.876 170.77 244.987C170.201 245.097 169.613 245.036 169.08 244.81C168.469 244.416 168.018 243.817 167.81 243.12C166.983 241.044 166.51 238.843 166.41 236.61C166.28 239.464 166.768 242.312 167.84 244.96C168.048 245.66 168.498 246.262 169.11 246.66C169.644 246.883 170.231 246.943 170.799 246.833C171.366 246.722 171.889 246.447 172.3 246.04C173.003 245.262 173.483 244.308 173.69 243.28C175.291 237.667 176.501 231.95 177.31 226.17L177.41 223.43Z" fill="black"/>
<path opacity="0.1" d="M185.15 226.03C184.66 227.68 183.59 229.2 183.4 230.9C183.335 231.448 183.335 232.002 183.4 232.55C183.64 230.93 184.65 229.46 185.12 227.87C185.437 226.708 185.542 225.499 185.43 224.3C185.396 224.885 185.302 225.464 185.15 226.03V226.03Z" fill="black"/>
<path opacity="0.1" d="M181.01 238.17C180.87 237.35 179.67 237.08 178.85 236.63C178.28 236.262 177.813 235.755 177.493 235.157C177.173 234.558 177.01 233.889 177.02 233.21V233.44C176.93 235.28 177.02 237.44 178.86 238.44C179.68 238.89 180.86 239.15 181.02 239.98C181.744 239.828 182.395 239.434 182.865 238.864C183.336 238.293 183.599 237.58 183.61 236.84C183.633 236.366 183.617 235.891 183.56 235.42C183.486 236.091 183.198 236.721 182.739 237.216C182.28 237.711 181.674 238.045 181.01 238.17Z" fill="black"/>
</g>
</g>
<path d="M435.817 260.207L381.29 268.557L353.351 271.158L345.901 271.858C345.901 271.858 332.597 273.918 331.297 271.858C329.997 269.797 304.361 271.858 304.361 271.858C304.361 271.858 288.785 253.717 251.778 263.297C248.042 265.459 243.832 266.721 239.497 266.977C239.492 266.904 239.492 266.831 239.497 266.757C239.63 262.587 239.098 248.206 226.111 240.336C222.417 240.709 218.833 241.782 215.56 243.496L215.263 243.656L214.383 244.156L214.27 244.276C214.653 242.63 214.913 240.959 215.048 239.276C215.048 238.646 215.048 238.016 215.12 237.386C216.61 236.982 217.913 236.093 218.814 234.866C219.185 234.138 219.344 233.325 219.275 232.515C219.275 232.225 219.275 231.925 219.275 231.635C219.27 231.572 219.27 231.509 219.275 231.445C219.275 231.445 219.275 231.445 219.275 231.505C219.06 228.543 218.616 225.601 217.944 222.705L221.956 225.305C222.918 225.925 224.126 226.585 225.272 226.235C225.64 226.107 225.973 225.896 226.243 225.62C226.513 225.344 226.713 225.01 226.828 224.645C227.544 222.745 227.022 220.475 228.537 218.905C228.895 218.535 229.345 218.235 229.652 217.845C230.07 217.311 230.27 216.644 230.215 215.975C230.219 215.586 230.188 215.198 230.123 214.814V214.894C229.858 213.915 229.816 212.891 230 211.894C230.535 212.098 231.123 212.127 231.676 211.978C232.23 211.828 232.719 211.508 233.07 211.064C233.621 210.221 233.892 209.233 233.848 208.234C233.94 206.544 234.012 204.814 233.971 203.094C233.976 203.061 233.976 203.027 233.971 202.994V202.994C233.869 198.924 233.081 194.913 230.215 191.663C230.962 187.003 225.774 181.923 219.981 181.283C218.558 181.133 216.808 181.053 216.174 180.003C215.959 179.503 215.865 178.963 215.898 178.422C215.754 176.652 214.506 175.082 213.308 173.592C212.822 172.941 212.235 172.368 211.569 171.892C209.665 170.692 206.963 171.012 204.609 171.422C200.298 172.162 196.013 172.989 191.756 173.902C191.244 171.889 191.276 169.78 191.848 167.782C192.243 166.782 192.485 165.731 192.564 164.662C192.583 164.325 192.545 163.987 192.451 163.662V163.792C192.392 163.625 192.324 163.461 192.247 163.302C192.043 162.936 191.749 162.626 191.391 162.399C191.034 162.172 190.625 162.035 190.2 162.002C189.645 161.984 189.096 162.123 188.62 162.404C188.144 162.684 187.762 163.093 187.519 163.582C185.083 167.047 183.395 170.96 182.555 175.082C180.931 173.975 179.05 173.282 177.082 173.065C175.115 172.849 173.123 173.116 171.287 173.842C170.363 174.329 169.364 174.666 168.33 174.842C167.469 174.845 166.622 174.627 165.874 174.211C165.125 173.796 164.501 173.196 164.062 172.472C162.885 170.762 162.363 168.722 160.091 167.592C159.585 167.338 159.023 167.206 158.454 167.206C157.885 167.206 157.323 167.338 156.816 167.592C156.551 167.728 156.316 167.915 156.126 168.142C155.936 168.369 155.795 168.631 155.711 168.912C155.716 168.862 155.716 168.812 155.711 168.762C155.696 168.908 155.696 169.056 155.711 169.202C155.711 169.262 155.711 169.322 155.711 169.382C155.711 169.442 155.711 169.532 155.711 169.602C155.629 171.532 157.011 174.032 155.445 175.552C154.816 176.065 154.084 176.444 153.296 176.662L147.729 178.612C144.756 179.819 141.612 180.574 138.405 180.853C135.489 180.953 132.541 180.323 129.666 180.393C129.53 180.325 129.4 180.248 129.277 180.163C128.635 180.196 127.995 180.269 127.363 180.383C127.426 180.461 127.494 180.534 127.568 180.603H127.363C128.829 182.195 130.763 183.306 132.899 183.783C134.22 184.103 135.611 184.203 136.891 184.603C138.17 185.003 139.388 185.803 139.613 186.903C139.636 187.824 139.411 188.735 138.958 189.543L138.907 189.463C138.773 189.818 138.707 190.195 138.712 190.573C138.687 190.752 138.687 190.934 138.712 191.113C138.937 191.743 139.387 192.271 139.98 192.6C140.573 192.93 141.268 193.037 141.936 192.903L135.356 196.953C134.865 197.241 134.406 197.576 133.984 197.954L133.8 197.904C133.613 198.083 133.465 198.298 133.367 198.535C133.268 198.773 133.221 199.027 133.227 199.284C133.206 199.48 133.23 199.678 133.299 199.864L135.417 200.454L129.635 208.274C129.282 208.728 128.974 209.214 128.714 209.724L128.652 209.624C128.521 209.942 128.451 210.281 128.448 210.624C128.427 210.794 128.427 210.965 128.448 211.134C128.497 211.415 128.607 211.683 128.771 211.919C128.935 212.155 129.149 212.354 129.398 212.503C129.647 212.652 129.926 212.746 130.216 212.781C130.505 212.816 130.799 212.79 131.078 212.704C129.811 213.947 128.79 215.408 128.069 217.015L127.977 216.955L127.885 217.165C127.741 217.479 127.667 217.82 127.67 218.165C127.627 218.428 127.681 218.697 127.823 218.925C128.083 219.191 128.405 219.393 128.761 219.513C129.117 219.633 129.497 219.668 129.87 219.615C132.94 219.615 135.796 217.565 136.277 215.114C137.218 216.115 136.205 217.305 135.315 218.335C131.692 222.475 128.008 226.685 126.104 231.515C125.435 233.172 125.028 234.919 124.896 236.696C124.896 236.696 124.896 236.616 124.896 236.576C124.896 236.706 124.896 236.836 124.896 236.966C124.64 240.282 125.711 243.567 127.885 246.126C128.69 246.923 129.41 247.798 130.034 248.736C131.18 250.816 130.525 253.487 132.306 255.247C133.743 251.505 135.481 247.88 137.505 244.406C137.473 245.346 137.329 246.279 137.075 247.186V247.106C137.075 247.346 136.993 247.576 136.973 247.806C136.962 247.976 136.962 248.146 136.973 248.316C136.925 248.919 137.075 249.521 137.401 250.035C137.726 250.549 138.211 250.949 138.784 251.176C140.595 251.806 142.468 250.526 143.696 249.246C143.87 249.686 144.044 250.116 144.239 250.546C148.048 258.827 154.932 265.386 163.499 268.897L163.663 269.227C156.755 273.228 140.698 282.958 139.654 286.688C138.313 291.449 138.794 303.969 148.414 306.51C150.496 307.064 152.656 307.287 154.811 307.17C154.401 307.8 154.002 308.44 153.613 309.06C150.952 313.28 148.721 317.19 148.046 319.29C146.101 325.421 127.926 332.841 127.926 332.841C127.926 332.841 111.367 345.842 107.806 370.843C107.806 370.843 90.2746 393.104 80.5421 397.745C70.8095 402.385 53.9335 430.826 53.9335 430.826C53.9335 430.826 37.2213 442.287 33.6701 453.458C30.1189 464.628 21.3892 467.378 21.3892 467.378C21.3892 467.378 22.1875 467.758 23.436 468.518C23.0369 468.728 22.6173 468.969 22.1465 469.249C14.2049 473.869 -3.32603 486.52 0.552677 506.251C4.31881 525.252 26.3016 506.761 36.9859 496.42L37.9479 495.48C37.7845 496.545 37.5589 497.6 37.2725 498.64C39.5837 495.115 42.4505 491.97 45.7667 489.32C49.3353 486.502 52.2662 482.991 54.3736 479.009C55.9905 476.009 58.5798 473.009 62.5608 472.009C71.3212 469.849 115.778 436.457 125.531 419.136C135.284 401.815 155.711 395.134 155.711 395.134L165.086 423.786C166.516 428.167 166.766 432.834 165.812 437.337C163.765 447.097 161.197 465.958 167.398 480.629C167.398 480.629 167.685 480.369 168.207 479.939C169.056 483.659 170.141 488.55 171.124 493.36C171.359 494.54 171.584 495.72 171.799 496.88C172.423 500.15 172.945 503.22 173.242 505.671C174.542 516.191 178.114 540.312 181.03 542.783C183.947 545.253 200.475 595.346 200.475 595.346C200.475 595.346 215.079 628.127 212.817 642.658C212.611 644.438 212.642 646.236 212.909 648.008C213.413 651.622 214.158 655.2 215.14 658.719C215.427 659.779 215.713 660.859 216.041 661.959C216.307 662.909 216.594 663.879 216.88 664.849C223.952 688.301 237.481 719.652 237.481 719.652C237.481 719.652 238.607 722.503 240.07 726.313C240.551 727.593 241.094 728.983 241.616 730.413C244.021 736.813 246.559 743.994 246.559 745.624C246.559 745.994 247.071 746.404 247.961 746.824C245.643 750.589 243.592 754.505 241.821 758.545C238.975 765.105 230.788 771.605 230.788 771.605C230.788 771.605 221.045 774.305 221.045 782.606V788.946C221.045 788.946 241.739 788.556 248.555 790.416C255.37 792.276 264.458 789.096 264.458 789.096L266.403 786.636C266.403 786.636 290.013 787.636 291.476 781.906C291.906 780.226 291.885 776.646 291.538 772.375C291.091 767.168 290.305 761.994 289.184 756.884C290.739 756.824 291.804 756.724 291.804 756.724C291.804 756.724 302.601 763.525 303.726 770.255C304.071 772.233 304.852 774.115 306.015 775.769C307.178 777.423 308.695 778.811 310.46 779.836C310.46 779.836 321.667 784.836 343.158 782.546C354.416 781.376 356.534 775.775 355.5 770.795C354.559 766.235 350.956 762.195 349.247 762.525C345.686 763.225 331.317 743.044 331.317 743.044L324.02 728.043C324.675 720.042 322.751 716.252 320.05 714.642C321.902 697.771 322.148 675.16 322.148 675.16C322.148 675.16 323.775 647.948 322.148 623.517C320.52 599.086 320.52 551.163 314.984 535.082C312.425 527.602 308.721 506.651 305.507 486.389C305.261 484.869 305.016 483.389 304.791 481.859C304.013 476.929 303.286 472.109 302.611 467.588C302.928 467.438 303.256 467.288 303.542 467.128L301.802 452.288L301.557 450.238C301.618 450.298 301.7 450.337 301.761 450.388C307.605 455.638 299.817 426.576 299.817 426.576C299.817 426.576 296.307 393.154 296.542 373.933C296.564 367.094 296.192 360.26 295.426 353.462C294.833 347.742 296.214 340.311 305.057 335.081C307.38 333.648 309.559 332.004 311.566 330.171C314.032 327.981 319.415 325.171 331.01 324.841C350.455 324.231 369.9 314.33 369.9 314.33C369.9 314.33 392.302 315.57 402.649 302.579C412.995 289.589 439 286.508 439 286.508L435.817 260.207ZM34.847 479.609L31.9712 475.669C33.0396 476.902 34.0014 478.22 34.847 479.609V479.609ZM279.615 640.468C279.451 642.468 279.328 644.818 279.308 647.468C279.226 655.749 280.065 666.789 283.882 677.34L282.255 718.892H282.122C280.751 718.752 279.472 722.993 278.479 728.583C277.667 726.275 276.661 724.038 275.47 721.893C273.526 719.112 275.153 703.661 275.153 703.661C275.153 703.661 267.027 690.981 266.392 688.191C265.758 685.401 255.995 640.258 255.995 640.258C255.995 640.258 255.35 605.016 251.778 596.056C248.207 587.095 247.234 548.123 247.234 548.123C247.234 548.123 265.082 576.254 266.392 590.485L280.341 634.088C280.341 634.088 279.912 636.468 279.615 640.468Z" fill="url(#paint0_linear)"/>
<defs>
<filter id="filter0_d" x="16" y="470" width="48.374" height="54.7649" filterUnits="userSpaceOnUse" color-interpolation-filters="sRGB">
<feFlood flood-opacity="0" result="BackgroundImageFix"/>
<feColorMatrix in="SourceAlpha" type="matrix" values="0 0 0 0 0 0 0 0 0 0 0 0 0 0 0 0 0 0 127 0"/>
<feOffset dy="4"/>
<feGaussianBlur stdDeviation="2"/>
<feColorMatrix type="matrix" values="0 0 0 0 0 0 0 0 0 0 0 0 0 0 0 0 0 0 0.25 0"/>
<feBlend mode="normal" in2="BackgroundImageFix" result="effect1_dropShadow"/>
<feBlend mode="normal" in="SourceGraphic" in2="effect1_dropShadow" result="shape"/>
</filter>
<filter id="filter1_d" x="419.781" y="240.457" width="59.3858" height="63.8563" filterUnits="userSpaceOnUse" color-interpolation-filters="sRGB">
<feFlood flood-opacity="0" result="BackgroundImageFix"/>
<feColorMatrix in="SourceAlpha" type="matrix" values="0 0 0 0 0 0 0 0 0 0 0 0 0 0 0 0 0 0 127 0"/>
<feOffset dy="4"/>
<feGaussianBlur stdDeviation="2"/>
<feColorMatrix type="matrix" values="0 0 0 0 0 0 0 0 0 0 0 0 0 0 0 0 0 0 0.25 0"/>
<feBlend mode="normal" in2="BackgroundImageFix" result="effect1_dropShadow"/>
<feBlend mode="normal" in="SourceGraphic" in2="effect1_dropShadow" result="shape"/>
</filter>
<linearGradient id="paint0_linear" x1="219.51" y1="791.006" x2="219.51" y2="161.972" gradientUnits="userSpaceOnUse">
<stop stop-color="#808080" stop-opacity="0.25"/>
<stop offset="0.54" stop-color="#808080" stop-opacity="0.12"/>
<stop offset="1" stop-color="#808080" stop-opacity="0.1"/>
</linearGradient>
<clipPath id="clip0">
<rect width="1040.82" height="799.22" fill="white" transform="translate(12)"/>
</clipPath>
</defs>
</svg>
